<?xml version="1.0" encoding="UTF-8"?><svg fill="#ffffff" id="Layer_2" xmlns="http://www.w3.org/2000/svg" viewBox="0 0 30.5 30.5"><g id="Icons"><g id="Phone"><path d="M30.41,13.56C27.73,7.4,22.92,2.61,16.86,.07c-.51-.21-1.08,.04-1.29,.56-.2,.52,.04,1.11,.54,1.33,5.59,2.34,10.03,6.76,12.5,12.44,.16,.38,.52,.6,.9,.6,.13,0,.27-.03,.4-.09,.5-.23,.72-.83,.5-1.35Z"/><path d="M15.6,7.39c3.39,1.42,6.08,4.09,7.58,7.53,.16,.36,.51,.58,.87,.58,.13,0,.26-.03,.39-.09,.48-.22,.7-.8,.48-1.3-1.7-3.9-4.76-6.94-8.6-8.54-.49-.2-1.04,.04-1.24,.54-.2,.5,.04,1.08,.53,1.28Z"/><path d="M25.23,19.27c-.54-.54-1.15-.8-1.76-.8s-1.22,.27-1.75,.8c-.82,.81-1.64,1.63-2.45,2.46-.14,.14-.26,.21-.39,.21-.09,0-.18-.03-.28-.09-.53-.29-1.1-.52-1.61-.84-2.38-1.5-4.38-3.43-6.15-5.59-.88-1.08-1.66-2.23-2.2-3.53-.11-.26-.09-.44,.12-.65,.82-.79,1.62-1.61,2.43-2.42,1.13-1.13,1.13-2.46,0-3.6-.64-.65-1.28-1.28-1.93-1.93-.66-.66-1.32-1.33-1.99-1.99-.54-.53-1.15-.79-1.76-.79-.61,0-1.22,.27-1.76,.8-.83,.82-1.62,1.65-2.47,2.45C.5,4.49,.11,5.39,.02,6.45c-.13,1.72,.29,3.34,.88,4.92,1.22,3.27,3.07,6.18,5.31,8.85,3.03,3.6,6.65,6.46,10.88,8.51,1.91,.93,3.88,1.64,6.03,1.75,.13,0,.26,.01,.39,.01,1.32,0,2.47-.4,3.4-1.45,.7-.79,1.5-1.51,2.24-2.26,1.1-1.12,1.11-2.47,.01-3.58-1.31-1.32-2.63-2.63-3.95-3.94Zm2.52,6.11c-.25,.25-.5,.49-.75,.74-.52,.5-1.05,1.02-1.57,1.6-.49,.55-1.06,.79-1.91,.79-.09,0-.18,0-.28,0-1.6-.09-3.23-.57-5.26-1.56-3.92-1.91-7.37-4.6-10.23-8-2.29-2.72-3.91-5.42-4.97-8.26-.62-1.64-.85-2.9-.76-4.06,.05-.6,.24-1.03,.64-1.41,.52-.49,1.02-1,1.53-1.51,.32-.32,.64-.65,.97-.97,.18-.18,.31-.22,.35-.22s.18,.05,.36,.22c.44,.43,.87,.87,1.31,1.31l.66,.66c.33,.33,.65,.66,.98,.98,.32,.32,.63,.63,.95,.95,.37,.37,.35,.44,0,.78l-.34,.34c-.68,.69-1.37,1.38-2.09,2.08-.78,.78-.98,1.82-.55,2.84,.56,1.34,1.36,2.62,2.5,4.02,2.08,2.56,4.25,4.53,6.64,6.03,.39,.24,.79,.44,1.14,.61,.19,.09,.38,.19,.54,.27,.41,.23,.83,.35,1.27,.35,.47,0,1.17-.14,1.83-.82,.79-.81,1.59-1.61,2.43-2.44,.18-.18,.3-.22,.35-.22s.17,.05,.35,.22c1.32,1.31,2.63,2.62,3.94,3.93,.3,.31,.34,.4-.02,.76Z"/></g></g></svg>